<svg width="800" height="460" viewBox="0 0 800 460" fill="none" xmlns="http://www.w3.org/2000/svg">
<g clip-path="url(#clip0_36_25)">
<path d="M1388.78 202.549C1342.85 198.897 1288.74 198.958 1242.63 200.908C1200.54 202.688 1151.87 202.676 1114.09 224.425C1086.4 240.366 1065.34 264.929 1055.35 295.525C1047.67 319.021 1045.89 344.495 1036.67 367.575C1028.88 387.053 1014.07 409.993 999.77 425.489C975.5 451.8 935.42 468.374 900.75 474.564C863.99 481.126 825.09 475.678 788.04 475.938C744.73 476.24 704.86 481.177 667.85 505.276C644.89 520.23 630.957 544.314 610.672 562.673C587.011 584.089 553.112 597.512 523.985 609.282C477.494 628.069 429.76 638.609 379.956 644.236C348.381 647.803 315.754 647.636 284.201 643.899C265.034 641.629 248.332 637.186 232.264 626.557C217.123 616.542 200.821 606.354 196.092 588.092" stroke="url(#paint0_linear_36_25)" stroke-opacity="0.25"/>
<path d="M1404.88 171.997C1358.95 168.346 1227.18 168.736 1181.07 170.686C1138.99 172.466 1090.32 172.454 1052.54 194.203C1024.85 210.144 1003.79 234.707 993.8 265.304C986.12 288.799 984.34 314.274 975.12 337.353C967.33 356.831 952.52 379.771 938.22 395.267C913.95 421.578 873.87 438.152 839.19 444.342C802.44 450.904 763.54 445.457 726.49 445.716C683.18 446.019 643.31 450.955 606.302 475.054C583.337 490.008 569.405 514.092 549.12 532.451C525.459 553.867 491.56 567.29 462.433 579.06C415.942 597.847 368.208 608.388 318.404 614.014C286.829 617.581 254.202 617.414 222.649 613.677C203.482 611.407 186.78 606.964 170.711 596.335C155.571 586.32 139.269 576.132 134.54 557.87" stroke="url(#paint1_linear_36_25)" stroke-opacity="0.25"/>
<path d="M1402.17 140.243C1356.25 136.591 1167.25 132.319 1121.14 134.27C1079.05 136.05 1030.38 136.038 992.6 157.787C964.91 173.727 943.85 198.291 933.86 228.887C926.19 252.382 924.4 277.857 915.18 300.937C907.4 320.414 892.58 343.355 878.29 358.851C854.01 385.162 813.93 401.736 779.26 407.926C742.5 414.487 703.6 409.04 666.55 409.299C623.241 409.602 583.374 414.539 546.366 438.637C523.401 453.591 509.47 477.675 489.185 496.035C465.523 517.451 431.625 530.873 402.498 542.643C356.007 561.43 308.272 571.971 258.469 577.597C226.894 581.165 194.267 580.998 162.714 577.261C143.546 574.991 126.845 570.547 110.777 559.919C95.637 549.904 79.335 539.715 74.605 521.453" stroke="url(#paint2_linear_36_25)" stroke-opacity="0.25"/>
<path d="M1428.09 116.459C1382.17 112.807 1125.62 95.266 1079.52 97.216C1037.43 98.996 988.76 98.984 950.98 120.733C923.29 136.674 902.23 161.237 892.24 191.834C884.56 215.329 882.78 240.804 873.56 263.883C865.77 283.361 850.96 306.301 836.66 321.797C812.39 348.109 772.31 364.682 737.64 370.872C700.88 377.434 661.98 371.987 624.93 372.246C581.618 372.549 541.751 377.486 504.744 401.584C481.779 416.538 467.847 440.622 447.562 458.981C423.9 480.397 390.002 493.82 360.875 505.59C314.384 524.377 266.649 534.918 216.846 540.544C185.271 544.111 152.644 543.944 121.091 540.207C101.924 537.937 85.222 533.494 69.153 522.865C54.013 512.85 37.711 502.662 32.981 484.4" stroke="url(#paint3_linear_36_25)" stroke-opacity="0.25"/>
<path d="M1430.59 80.2214C1384.67 76.5695 1093.52 68.2435 1047.41 70.1936C1005.32 71.9736 956.65 71.9617 918.87 93.711C891.18 109.651 870.12 134.215 860.13 164.811C852.45 188.307 850.67 213.781 841.45 236.861C833.67 256.338 818.85 279.279 804.56 294.775C780.28 321.086 740.2 337.66 705.53 343.85C668.77 350.411 629.873 344.964 592.823 345.223C549.511 345.526 509.644 350.463 472.636 374.561C449.671 389.515 435.74 413.599 415.455 431.959C391.793 453.375 357.894 466.797 328.768 478.567C282.276 497.354 234.542 507.895 184.739 513.521C153.164 517.089 120.537 516.922 88.984 513.185C69.816 510.915 53.115 506.471 37.046 495.843C21.906 485.828 5.60399 475.639 0.873993 457.377" stroke="url(#paint4_linear_36_25)" stroke-opacity="0.25"/>
<path d="M1435.4 49.6095C1389.47 45.9576 1031.96 38.0217 985.86 39.9718C943.77 41.7518 895.1 41.7399 857.32 63.4889C829.63 79.4293 808.57 103.993 798.58 134.589C790.9 158.085 789.12 183.559 779.9 206.639C772.11 226.116 757.3 249.057 743 264.553C718.73 290.864 678.65 307.438 643.98 313.628C607.22 320.189 568.32 314.742 531.27 315.001C487.958 315.304 448.091 320.241 411.083 344.339C388.118 359.293 374.186 383.378 353.902 401.737C330.24 423.153 296.341 436.576 267.215 448.345C220.723 467.132 172.989 477.673 123.186 483.3C91.611 486.867 58.984 486.7 27.431 482.963C8.264 480.693 -8.43801 476.25 -24.506 465.621C-39.646 455.606 -55.948 445.417 -60.678 427.156" stroke="url(#paint5_linear_36_25)" stroke-opacity="0.25"/>
<path d="M1202.39 6.17119C1156.47 2.51919 972.03 1.60509 925.92 3.55519C883.83 5.33519 835.16 5.32329 797.38 27.0723C769.69 43.0128 748.64 67.5763 738.64 98.173C730.97 121.668 729.18 147.143 719.96 170.222C712.18 189.7 697.36 212.64 683.07 228.137C658.79 254.448 618.715 271.021 584.04 277.212C547.285 283.773 508.385 278.326 471.335 278.585C428.023 278.888 388.156 283.825 351.148 307.923C328.183 322.877 314.252 346.961 293.967 365.32C270.305 386.736 236.407 400.159 207.28 411.929C160.788 430.716 113.054 441.257 63.251 446.883C31.676 450.45 -0.951014 450.284 -32.504 446.547C-51.672 444.277 -68.373 439.833 -84.442 429.204C-99.582 419.19 -115.884 409.001 -120.614 390.739" stroke="url(#paint6_linear_36_25)" stroke-opacity="0.25"/>
</g>
<defs>
<linearGradient id="paint0_linear_36_25" x1="786.22" y1="216.74" x2="800.63" y2="630.827" gradientUnits="userSpaceOnUse">
<stop stop-color="#0E0F11"/>
<stop offset="0.885417" stop-color="#0E0F11"/>
</linearGradient>
<linearGradient id="paint1_linear_36_25" x1="763.46" y1="185.19" x2="777.86" y2="599.256" gradientUnits="userSpaceOnUse">
<stop stop-color="#0E0F11"/>
<stop offset="0.885417" stop-color="#0E0F11"/>
</linearGradient>
<linearGradient id="paint2_linear_36_25" x1="732.02" y1="147.794" x2="746.42" y2="561.848" gradientUnits="userSpaceOnUse">
<stop stop-color="#0E0F11"/>
<stop offset="0.885417" stop-color="#0E0F11"/>
</linearGradient>
<linearGradient id="paint3_linear_36_25" x1="723.9" y1="109.58" x2="738.3" y2="523.63" gradientUnits="userSpaceOnUse">
<stop stop-color="#0E0F11"/>
<stop offset="0.885417" stop-color="#0E0F11"/>
</linearGradient>
<linearGradient id="paint4_linear_36_25" x1="709.23" y1="81.9499" x2="723.63" y2="496.001" gradientUnits="userSpaceOnUse">
<stop stop-color="#0E0F11"/>
<stop offset="0.885417" stop-color="#0E0F11"/>
</linearGradient>
<linearGradient id="paint5_linear_36_25" x1="680.83" y1="50.5757" x2="695.23" y2="464.626" gradientUnits="userSpaceOnUse">
<stop stop-color="#0E0F11"/>
<stop offset="0.885417" stop-color="#0E0F11"/>
</linearGradient>
<linearGradient id="paint6_linear_36_25" x1="534.585" y1="17.1533" x2="548.985" y2="431.211" gradientUnits="userSpaceOnUse">
<stop stop-color="#0E0F11"/>
<stop offset="0.885417" stop-color="#0E0F11"/>
</linearGradient>
<clipPath id="clip0_36_25">
<rect width="1440" height="472" fill="white" transform="translate(-364 -12)"/>
</clipPath>
</defs>
</svg>
