<svg width="41" height="42" viewBox="0 0 41 42" fill="none" xmlns="http://www.w3.org/2000/svg">
<g clip-path="url(#clip0_14_23)">
<path d="M21.42 40.684H19.236C18.872 38.448 17.884 36.004 16.22 33.352C12.892 28.1 6.184 22.952 0.411999 21.756V19.572C3.272 18.948 6.08 17.648 8.784 15.724C14.296 11.824 18.352 6 19.236 0.747997H21.42C21.94 3.504 23.136 6.156 25.008 8.86C28.7 14.216 34.472 18.168 40.348 19.572V21.756C37.384 22.38 34.368 23.836 31.404 26.072C25.372 30.596 22.2 36.212 21.42 40.684Z" fill="#161616"/>
</g>
<defs>
<clipPath id="clip0_14_23">
<rect width="41" height="41" fill="white" transform="translate(0 0.5)"/>
</clipPath>
</defs>
</svg>
