<svg width="1138" height="421" viewBox="0 0 1138 421" fill="none" xmlns="http://www.w3.org/2000/svg">
<path d="M1450.78 163.549C1404.85 159.897 1350.74 159.958 1304.63 161.908C1262.54 163.688 1213.87 163.676 1176.09 185.425C1148.4 201.366 1127.34 225.929 1117.35 256.525C1109.67 280.021 1107.89 305.495 1098.67 328.575C1090.88 348.053 1076.07 370.993 1061.77 386.489C1037.5 412.8 997.42 429.374 962.75 435.564C925.99 442.126 887.09 436.678 850.04 436.938C806.73 437.24 766.86 442.177 729.85 466.276C706.89 481.23 692.957 505.314 672.672 523.673C649.011 545.089 615.112 558.512 585.985 570.282C539.494 589.069 491.76 599.609 441.956 605.236C410.381 608.803 377.754 608.636 346.201 604.899C327.034 602.629 310.332 598.186 294.264 587.557C279.123 577.542 262.821 567.354 258.092 549.092" stroke="url(#paint0_linear_38_10)" stroke-opacity="0.25"/>
<path d="M1466.88 132.997C1420.95 129.346 1289.18 129.736 1243.07 131.686C1200.99 133.466 1152.32 133.454 1114.54 155.203C1086.85 171.144 1065.79 195.707 1055.8 226.304C1048.12 249.799 1046.34 275.274 1037.12 298.353C1029.33 317.831 1014.52 340.771 1000.22 356.267C975.95 382.578 935.87 399.152 901.19 405.342C864.44 411.904 825.54 406.457 788.49 406.716C745.18 407.019 705.31 411.955 668.302 436.054C645.337 451.008 631.405 475.092 611.12 493.451C587.459 514.867 553.56 528.29 524.433 540.06C477.942 558.847 430.208 569.388 380.404 575.014C348.829 578.581 316.202 578.414 284.649 574.677C265.482 572.407 248.78 567.964 232.711 557.335C217.571 547.32 201.269 537.132 196.54 518.87" stroke="url(#paint1_linear_38_10)" stroke-opacity="0.25"/>
<path d="M1464.17 101.243C1418.25 97.591 1229.25 93.319 1183.14 95.27C1141.05 97.05 1092.38 97.038 1054.6 118.787C1026.91 134.727 1005.85 159.291 995.86 189.887C988.19 213.382 986.4 238.857 977.18 261.937C969.4 281.414 954.58 304.355 940.29 319.851C916.01 346.162 875.93 362.736 841.26 368.926C804.5 375.487 765.6 370.04 728.55 370.299C685.241 370.602 645.374 375.539 608.366 399.637C585.401 414.591 571.47 438.675 551.185 457.035C527.523 478.451 493.625 491.873 464.498 503.643C418.007 522.43 370.272 532.971 320.469 538.597C288.894 542.165 256.267 541.998 224.714 538.261C205.546 535.991 188.845 531.547 172.777 520.919C157.637 510.904 141.335 500.715 136.605 482.453" stroke="url(#paint2_linear_38_10)" stroke-opacity="0.25"/>
<path d="M1490.09 77.459C1444.17 73.807 1187.62 56.266 1141.52 58.216C1099.43 59.996 1050.76 59.984 1012.98 81.733C985.29 97.674 964.23 122.237 954.24 152.834C946.56 176.329 944.78 201.804 935.56 224.883C927.77 244.361 912.96 267.301 898.66 282.797C874.39 309.109 834.31 325.682 799.64 331.872C762.88 338.434 723.98 332.987 686.93 333.246C643.618 333.549 603.751 338.486 566.744 362.584C543.779 377.538 529.847 401.622 509.562 419.981C485.9 441.397 452.002 454.82 422.875 466.59C376.384 485.377 328.649 495.918 278.846 501.544C247.271 505.111 214.644 504.944 183.091 501.207C163.924 498.937 147.222 494.494 131.153 483.865C116.013 473.85 99.711 463.662 94.981 445.4" stroke="url(#paint3_linear_38_10)" stroke-opacity="0.25"/>
<path d="M1492.59 41.2214C1446.67 37.5695 1155.52 29.2435 1109.41 31.1936C1067.32 32.9736 1018.65 32.9617 980.87 54.711C953.18 70.651 932.12 95.215 922.13 125.811C914.45 149.307 912.67 174.781 903.45 197.861C895.67 217.338 880.85 240.279 866.56 255.775C842.28 282.086 802.2 298.66 767.53 304.85C730.77 311.411 691.873 305.964 654.823 306.223C611.511 306.526 571.644 311.463 534.636 335.561C511.671 350.515 497.74 374.599 477.455 392.959C453.793 414.375 419.894 427.797 390.768 439.567C344.276 458.354 296.542 468.895 246.739 474.521C215.164 478.089 182.537 477.922 150.984 474.185C131.816 471.915 115.115 467.471 99.046 456.843C83.906 446.828 67.604 436.639 62.874 418.377" stroke="url(#paint4_linear_38_10)" stroke-opacity="0.25"/>
<path d="M1497.4 10.6095C1451.47 6.95762 1093.96 -0.978283 1047.86 0.971817C1005.77 2.75182 957.1 2.73991 919.32 24.4889C891.63 40.4293 870.57 64.993 860.58 95.589C852.9 119.085 851.12 144.559 841.9 167.639C834.11 187.116 819.3 210.057 805 225.553C780.73 251.864 740.65 268.438 705.98 274.628C669.22 281.189 630.32 275.742 593.27 276.001C549.958 276.304 510.091 281.241 473.083 305.339C450.118 320.293 436.186 344.378 415.902 362.737C392.24 384.153 358.341 397.576 329.215 409.345C282.723 428.132 234.989 438.673 185.186 444.3C153.611 447.867 120.984 447.7 89.431 443.963C70.264 441.693 53.562 437.25 37.494 426.621C22.354 416.606 6.05202 406.417 1.32202 388.156" stroke="url(#paint5_linear_38_10)" stroke-opacity="0.25"/>
<defs>
<linearGradient id="paint0_linear_38_10" x1="848.22" y1="177.74" x2="862.63" y2="591.827" gradientUnits="userSpaceOnUse">
<stop stop-color="#0E0F11"/>
</linearGradient>
<linearGradient id="paint1_linear_38_10" x1="825.46" y1="146.19" x2="839.86" y2="560.256" gradientUnits="userSpaceOnUse">
<stop stop-color="#0E0F11"/>
</linearGradient>
<linearGradient id="paint2_linear_38_10" x1="794.02" y1="108.794" x2="808.42" y2="522.848" gradientUnits="userSpaceOnUse">
<stop stop-color="#0E0F11"/>
</linearGradient>
<linearGradient id="paint3_linear_38_10" x1="785.9" y1="70.58" x2="800.3" y2="484.63" gradientUnits="userSpaceOnUse">
<stop stop-color="#0E0F11"/>
</linearGradient>
<linearGradient id="paint4_linear_38_10" x1="771.23" y1="42.9499" x2="785.63" y2="457.001" gradientUnits="userSpaceOnUse">
<stop stop-color="#0E0F11"/>
</linearGradient>
<linearGradient id="paint5_linear_38_10" x1="742.83" y1="11.5757" x2="757.23" y2="425.626" gradientUnits="userSpaceOnUse">
<stop offset="0.885317" stop-color="#0E0F11" stop-opacity="0.646177"/>
</linearGradient>
</defs>
</svg>
