<svg width="13" height="14" viewBox="0 0 13 14" fill="none" xmlns="http://www.w3.org/2000/svg">
<g clip-path="url(#clip0_14_63)">
<path d="M6.13999 13.172C5.89999 11.796 4.92399 10.068 3.06799 8.676C2.15599 7.988 1.22799 7.54 0.315994 7.348V6.676C2.12399 6.244 3.89999 5.028 5.03599 3.38C5.61199 2.548 5.97999 1.732 6.13999 0.884001H6.81199C7.08399 2.5 8.33199 4.292 10.028 5.492C10.86 6.084 11.724 6.484 12.604 6.676V7.348C10.828 7.716 8.76399 9.3 7.73999 10.916C7.22799 11.732 6.92399 12.484 6.81199 13.172H6.13999Z" fill="#1063FF"/>
</g>
<defs>
<clipPath id="clip0_14_63">
<rect width="13" height="13" fill="white" transform="translate(0 0.5)"/>
</clipPath>
</defs>
</svg>
