<svg width="36" height="38" viewBox="0 0 36 38" fill="none" xmlns="http://www.w3.org/2000/svg">
<mask id="mask0_13_11" style="mask-type:luminance" maskUnits="userSpaceOnUse" x="0" y="0" width="36" height="38">
<path d="M36 0H0V38H36V0Z" fill="white"/>
</mask>
<g mask="url(#mask0_13_11)">
<path d="M25.5 0.0207792C24.891 0.0771892 24.744 0.0920292 24.708 0.106879C24.645 0.130629 24.507 1.29734 24.456 2.23844L24.435 2.62141L24.105 2.70156C23.925 2.74609 23.673 2.82328 23.55 2.87375C23.235 3.00141 22.539 3.33094 22.359 3.44078C22.275 3.49125 22.2 3.53281 22.194 3.53281C22.185 3.53281 21.741 3.17656 21.207 2.74313C20.673 2.30969 20.217 1.9475 20.199 1.93859C20.127 1.90891 19.512 2.42547 19.053 2.8975C18.612 3.34875 18.108 3.97219 18.144 4.01672C18.273 4.18594 18.765 4.78563 19.185 5.28438C19.467 5.61984 19.71 5.91078 19.722 5.93156C19.734 5.95531 19.695 6.04438 19.62 6.16313C19.419 6.47781 19.185 6.96766 19.08 7.28828C19.026 7.45156 18.951 7.68016 18.912 7.79891C18.873 7.91469 18.84 8.03047 18.84 8.05422C18.84 8.08688 18.783 8.10172 18.624 8.11656C17.454 8.22344 16.329 8.3511 16.299 8.38375C16.206 8.47281 16.146 9.6663 16.197 10.3105C16.233 10.7588 16.302 11.2456 16.335 11.2753C16.347 11.2902 17.232 11.3763 18.606 11.5039L18.837 11.5247L18.855 11.6464C18.867 11.7147 18.9 11.8305 18.93 11.9047C18.96 11.9789 19.032 12.1927 19.092 12.3827C19.209 12.7419 19.452 13.2525 19.653 13.5494C19.719 13.6473 19.767 13.7423 19.758 13.7661C19.749 13.7869 19.509 14.0808 19.221 14.4192C18.429 15.3573 18.177 15.675 18.201 15.7136C18.303 15.8917 18.786 16.4528 19.125 16.7913C19.572 17.2366 20.271 17.8125 20.304 17.765C20.316 17.7472 20.601 17.5097 20.94 17.2336C21.279 16.9575 21.69 16.6191 21.855 16.4795C22.02 16.337 22.176 16.2064 22.206 16.1856C22.248 16.153 22.305 16.1738 22.596 16.337C22.998 16.5627 23.493 16.7645 23.973 16.8922C24.162 16.9427 24.336 16.9961 24.354 17.008C24.378 17.0228 24.423 17.3316 24.48 17.9045C24.57 18.7744 24.651 19.4602 24.672 19.5225C24.696 19.5848 25.602 19.6323 26.379 19.6145C26.997 19.5997 27.6 19.5433 27.648 19.4988C27.654 19.4898 27.708 18.9644 27.765 18.3291C27.825 17.6938 27.879 17.1297 27.888 17.0763C27.906 16.9634 27.9 16.9664 28.419 16.815C28.854 16.6873 29.433 16.435 29.784 16.2183C29.925 16.1292 30.054 16.0639 30.072 16.0728C30.09 16.0788 30.273 16.2272 30.48 16.4023C31.176 16.9961 32.046 17.667 32.091 17.6522C32.172 17.6195 32.505 17.3672 32.691 17.198C33.078 16.8417 34.14 15.6513 34.14 15.5741C34.14 15.5652 33.798 15.1555 33.384 14.6627C32.967 14.1728 32.595 13.7334 32.559 13.6889L32.493 13.6088L32.67 13.2703C32.907 12.822 33.138 12.2491 33.237 11.872L33.315 11.5633L33.87 11.5128C34.176 11.4861 34.752 11.4327 35.151 11.397L35.877 11.3288L35.895 11.2516C35.934 11.0645 35.973 10.6014 35.988 10.1234C36.015 9.4198 35.937 8.39563 35.856 8.34516C35.835 8.33328 35.265 8.27391 34.584 8.21156C33.903 8.14922 33.336 8.09281 33.324 8.08688C33.312 8.08094 33.288 7.99781 33.27 7.90281C33.189 7.4961 32.925 6.82219 32.652 6.32047L32.457 5.96125L32.571 5.82469C32.634 5.7475 32.988 5.31703 33.363 4.86578C33.735 4.41453 34.05 4.03156 34.062 4.01078C34.086 3.97516 33.849 3.67531 33.453 3.23891C33.015 2.75797 32.01 1.9 31.941 1.95047C31.692 2.1375 30.795 2.85594 30.48 3.12016C30.255 3.30422 30.054 3.47344 30.027 3.49422C29.991 3.52391 29.865 3.47344 29.34 3.20922C28.881 2.98359 28.599 2.86484 28.365 2.79656C28.185 2.74313 28.005 2.70156 27.969 2.70156C27.894 2.70156 27.894 2.71047 27.822 1.94453C27.771 1.3775 27.63 0.139529 27.618 0.127659C27.594 0.103909 27.24 0.0593793 26.862 0.0326593C26.472 0.00296927 25.746 -0.00296877 25.5 0.0207792ZM26.865 6.23734C27.516 6.34422 28.146 6.68563 28.695 7.22594C29.232 7.75438 29.562 8.33625 29.7 9.0102C30.012 10.4975 29.403 11.973 28.14 12.7983C27.564 13.1753 27.006 13.3505 26.292 13.3802C25.626 13.4098 25.128 13.3089 24.555 13.0328C23.838 12.6855 23.298 12.163 22.917 11.4475C22.629 10.9042 22.515 10.4292 22.518 9.7523C22.521 8.91813 22.749 8.24719 23.25 7.60594C23.886 6.78953 24.75 6.28188 25.635 6.20766C25.968 6.18094 26.622 6.19578 26.865 6.23734Z" fill="#2A5DB0"/>
<path d="M25.5 6.76578C24.405 7.00328 23.511 7.83156 23.169 8.92406C23.094 9.1705 23.088 9.2239 23.088 9.7523C23.085 10.3669 23.1 10.4589 23.283 10.928C23.478 11.4297 23.988 12.0502 24.477 12.3767C24.747 12.5578 25.119 12.7241 25.428 12.8013C25.812 12.8963 26.544 12.8963 26.898 12.8013C27.318 12.6884 27.621 12.5459 27.96 12.2966C28.92 11.59 29.379 10.5658 29.25 9.4169C29.169 8.67469 28.878 8.08688 28.347 7.58516C27.945 7.20516 27.525 6.96172 27.003 6.80734C26.646 6.70344 25.89 6.67969 25.5 6.76578ZM26.646 7.52578C27.33 7.66828 27.966 8.14625 28.257 8.73406C28.308 8.83797 28.38 9.0339 28.413 9.1705C28.467 9.3872 28.476 9.4822 28.464 9.8681C28.452 10.26 28.44 10.3461 28.362 10.5688C28.134 11.2427 27.468 11.8423 26.724 12.0413C26.496 12.1036 25.854 12.1125 25.65 12.0561C25.209 11.9373 24.849 11.7295 24.528 11.4119C24.393 11.2813 24.24 11.0972 24.183 11.0052C23.517 9.8978 23.868 8.44609 24.96 7.80484C25.182 7.67719 25.518 7.54656 25.74 7.51094C25.965 7.47234 26.433 7.48125 26.646 7.52578Z" fill="#2A5DB0"/>
<path d="M14.148 12.92C13.923 13.487 13.662 14.1906 13.395 14.9388L13.101 15.7641H12.735C12.042 15.7641 10.986 15.9036 10.371 16.0788C10.161 16.1381 9.984 16.1827 9.978 16.1767C9.975 16.1708 9.87 16.0253 9.747 15.8531C9.327 15.2594 8.037 13.5078 8.022 13.5078C7.992 13.5078 7.479 13.7097 7.365 13.7691C7.299 13.8017 7.143 13.8759 7.02 13.9353C6.897 13.9917 6.66 14.1164 6.495 14.2144C6.33 14.3094 6.051 14.4727 5.874 14.5766C5.559 14.7606 5.124 15.0694 4.848 15.3039L4.71 15.4256L5.07 16.1945C5.271 16.6191 5.583 17.2841 5.766 17.673L6.099 18.3795L5.871 18.6081C5.283 19.2019 4.572 20.1252 4.332 20.612C4.284 20.707 4.236 20.7813 4.221 20.7813C4.209 20.7813 3.783 20.71 3.276 20.6209C2.289 20.4488 0.957002 20.238 0.945002 20.2528C0.921002 20.2766 0.636002 20.9891 0.525002 21.3008C0.372002 21.7342 0.120001 22.9573 0.0150013 23.7945L-0.00299835 23.943L1.521 24.5219L3.045 25.1008L3.051 25.3828C3.063 25.8905 3.12 26.5139 3.183 26.8345C3.216 27.0067 3.264 27.2531 3.288 27.3778C3.312 27.5055 3.366 27.7222 3.405 27.8617C3.447 28.0013 3.48 28.1348 3.48 28.1586C3.48 28.1794 3.201 28.3961 2.859 28.6366C2.514 28.877 1.92 29.3016 1.536 29.5806C0.912001 30.0319 0.840001 30.0942 0.855001 30.1536C0.921001 30.4148 1.503 31.5311 1.893 32.1486C2.115 32.493 2.562 33.1283 2.685 33.2708L2.775 33.3717L3.3 33.1313C3.816 32.8908 5.508 32.1248 5.688 32.0477L5.778 32.0061L6.183 32.3772C6.69 32.8463 6.942 33.0333 7.629 33.4489C8.043 33.6983 8.175 33.7933 8.169 33.8348C8.166 33.8645 8.103 34.2564 8.028 34.7047C7.896 35.4944 7.68 36.9253 7.68 36.9995C7.68 37.0203 7.725 37.053 7.779 37.0767C8.454 37.3439 9.057 37.528 9.924 37.7298C10.503 37.8664 11.343 38.0089 11.373 37.9763C11.427 37.9169 12.156 36.0198 12.438 35.2183L12.552 34.8828H13.008C13.794 34.8828 14.349 34.8056 15.144 34.58C15.51 34.4791 15.582 34.4672 15.615 34.4998C15.636 34.5236 16.074 35.1292 16.59 35.8477C17.106 36.5661 17.532 37.1598 17.538 37.1628C17.547 37.1747 17.811 37.053 18.621 36.6581C18.957 36.4948 19.35 36.2722 19.656 36.0733C20.091 35.7883 20.649 35.3816 20.799 35.2391C20.853 35.1916 20.844 35.1648 20.556 34.5236C20.391 34.1584 20.079 33.4845 19.866 33.0273L19.476 32.1991L19.827 31.825C20.307 31.3203 20.742 30.7325 21.042 30.1863C21.117 30.0438 21.192 29.922 21.204 29.9161C21.216 29.9102 21.489 29.9488 21.81 30.0022C23.487 30.2813 24.459 30.4327 24.492 30.4208C24.558 30.3941 25.026 29.0759 25.155 28.5594C25.179 28.4525 25.215 28.3367 25.23 28.3011C25.257 28.2388 25.449 27.167 25.482 26.8909L25.5 26.7514L25.356 26.6891C25.17 26.6059 23.916 26.1369 23.064 25.8281L22.38 25.5817V25.1186C22.38 24.5872 22.35 24.2844 22.257 23.7886C22.203 23.4947 22.056 22.8564 22.002 22.6753C21.99 22.6397 22.134 22.5239 22.566 22.2181C23.217 21.758 24.651 20.7011 24.675 20.6595C24.696 20.6269 24.492 20.1519 24.246 19.668C23.898 18.9763 23.448 18.2786 22.974 17.6878L22.743 17.3998L22.344 17.572C21.792 17.8125 20.904 18.2163 20.283 18.5131L19.764 18.7625L19.362 18.3855C18.936 17.9877 18.42 17.5898 18.075 17.388C17.895 17.2841 17.526 17.0436 17.451 16.9813C17.439 16.9694 17.484 16.6161 17.55 16.1916C17.886 14.0719 17.943 13.7097 17.934 13.7008C17.928 13.6978 17.715 13.6147 17.46 13.5167C16.92 13.3089 16.263 13.0922 16.167 13.0922C16.131 13.0922 16.026 13.0655 15.933 13.0358C15.693 12.9527 14.469 12.7092 14.295 12.7062C14.247 12.7062 14.217 12.7537 14.148 12.92ZM13.605 20.707C14.433 20.8525 15.297 21.2533 15.921 21.7847C16.659 22.4141 17.301 23.563 17.475 24.5634C17.541 24.9405 17.535 25.5936 17.463 26.0122C17.331 26.7692 17.001 27.5708 16.608 28.0844C15.915 28.9958 14.715 29.7113 13.548 29.9102C13.206 29.9666 12.546 29.9666 12.186 29.9102C11.502 29.8003 10.728 29.5242 10.248 29.2184C9.18 28.5356 8.388 27.363 8.142 26.0953C8.07 25.7183 8.07 25.0325 8.142 24.6258C8.412 23.1147 9.129 22.0667 10.425 21.283C10.767 21.0752 11.304 20.8614 11.715 20.7634C12.294 20.6269 13.032 20.6061 13.605 20.707Z" fill="#2A5DB0"/>
<path d="M12.525 21.3067C11.88 21.3809 11.514 21.4908 10.98 21.7639C9.93 22.3013 9.303 23.082 8.985 24.2517C8.835 24.798 8.811 24.9672 8.808 25.4125C8.808 25.8341 8.856 26.1606 8.973 26.5139C9.045 26.7336 9.3 27.2828 9.33 27.2828C9.339 27.2828 9.432 27.4075 9.531 27.5559C9.975 28.218 10.596 28.7108 11.358 29.0047C12.876 29.5925 14.469 29.2838 15.669 28.1734C16.209 27.6747 16.653 26.8791 16.803 26.1488C17.01 25.1305 16.839 24.1775 16.284 23.2572C15.687 22.2627 14.907 21.7016 13.71 21.4077C13.308 21.3097 12.834 21.2681 12.525 21.3067ZM13.56 22.417C14.496 22.6486 15.156 23.1919 15.603 24.0944C15.807 24.513 15.852 24.7297 15.852 25.3086C15.852 25.8994 15.807 26.1102 15.582 26.5673C15.417 26.9088 15.246 27.1492 14.997 27.3956C14.127 28.2417 13.116 28.4881 11.925 28.1438C11.151 27.9211 10.539 27.3927 10.14 26.603C9.759 25.8489 9.723 24.9019 10.041 24.1805C10.356 23.4798 10.908 22.9217 11.616 22.5922C12.267 22.2894 12.84 22.2389 13.56 22.417Z" fill="#2A5DB0"/>
</g>
</svg>
