<svg width="163" height="40" viewBox="0 0 163 40" fill="none" xmlns="http://www.w3.org/2000/svg">
<path d="M33.096 35L38.4 19.16H43.44L48.72 35H44.52L40.968 22.304H40.824L37.248 35H33.096ZM36.096 32.192V29.456H46.2V32.192H36.096ZM53.0344 35.336C51.6584 35.336 50.6344 34.856 49.9624 33.896C49.3064 32.936 48.9784 31.464 48.9784 29.48V22.328H52.8664V29.432C52.8664 30.36 52.9944 31.008 53.2504 31.376C53.5224 31.744 53.9064 31.928 54.4024 31.928C54.7544 31.928 55.0744 31.84 55.3624 31.664C55.6664 31.472 55.9304 31.192 56.1544 30.824C56.3784 30.44 56.5464 29.952 56.6584 29.36C56.7864 28.768 56.8504 28.056 56.8504 27.224V22.328H60.7384V29.288V35H57.4264V30.056H57.2584C57.1624 31.288 56.9464 32.296 56.6104 33.08C56.2744 33.848 55.8104 34.416 55.2184 34.784C54.6264 35.152 53.8984 35.336 53.0344 35.336ZM67.5218 35.288C66.0338 35.288 64.9218 34.912 64.1858 34.16C63.4658 33.392 63.1058 32.208 63.1058 30.608V25.352H61.7138V22.904H61.7858C62.7778 22.776 63.4818 22.448 63.8978 21.92C64.3138 21.376 64.5698 20.56 64.6658 19.472V19.424H66.9458V22.328H69.8498V25.448H66.9458V30.248C66.9458 30.856 67.0898 31.288 67.3778 31.544C67.6818 31.8 68.0498 31.928 68.4818 31.928C68.7058 31.928 68.9378 31.896 69.1778 31.832C69.4178 31.768 69.6418 31.68 69.8498 31.568V34.952C69.3538 35.096 68.9138 35.184 68.5298 35.216C68.1458 35.264 67.8098 35.288 67.5218 35.288ZM76.7758 35.336C75.5598 35.336 74.4798 35.096 73.5358 34.616C72.5918 34.12 71.8558 33.384 71.3278 32.408C70.7998 31.416 70.5358 30.176 70.5358 28.688C70.5358 27.136 70.8078 25.872 71.3518 24.896C71.9118 23.904 72.6638 23.176 73.6078 22.712C74.5678 22.232 75.6478 21.992 76.8478 21.992C78.0958 21.992 79.1838 22.24 80.1118 22.736C81.0558 23.216 81.7838 23.952 82.2958 24.944C82.8238 25.92 83.0878 27.16 83.0878 28.664C83.0878 30.216 82.8078 31.488 82.2478 32.48C81.7038 33.456 80.9518 34.176 79.9918 34.64C79.0478 35.104 77.9758 35.336 76.7758 35.336ZM76.8718 32.48C77.3678 32.48 77.7838 32.344 78.1198 32.072C78.4558 31.784 78.7118 31.368 78.8878 30.824C79.0638 30.28 79.1518 29.632 79.1518 28.88C79.1518 28.048 79.0558 27.352 78.8638 26.792C78.6718 26.216 78.3918 25.776 78.0238 25.472C77.6718 25.168 77.2398 25.016 76.7278 25.016C76.2478 25.016 75.8398 25.16 75.5038 25.448C75.1678 25.72 74.9118 26.128 74.7358 26.672C74.5598 27.216 74.4718 27.872 74.4718 28.64C74.4718 29.856 74.6798 30.8 75.0958 31.472C75.5278 32.144 76.1198 32.48 76.8718 32.48ZM84.585 35V19.16H91.161C91.865 19.16 92.529 19.224 93.153 19.352C93.793 19.464 94.369 19.64 94.881 19.88C95.409 20.12 95.865 20.424 96.249 20.792C96.633 21.16 96.929 21.6 97.137 22.112C97.345 22.608 97.449 23.176 97.449 23.816C97.449 24.312 97.361 24.784 97.185 25.232C97.025 25.664 96.761 26.056 96.393 26.408C96.041 26.76 95.577 27.056 95.001 27.296C94.441 27.52 93.769 27.68 92.985 27.776V27.968C94.009 28.016 94.801 28.216 95.361 28.568C95.921 28.92 96.337 29.368 96.609 29.912C96.897 30.44 97.113 31.016 97.257 31.64L98.097 35H93.801L93.201 31.856C93.105 31.312 92.953 30.872 92.745 30.536C92.553 30.2 92.273 29.952 91.905 29.792C91.537 29.632 91.049 29.552 90.441 29.552H88.473V35H84.585ZM88.473 26.552H90.729C91.609 26.552 92.281 26.384 92.745 26.048C93.209 25.712 93.441 25.2 93.441 24.512C93.441 23.76 93.225 23.2 92.793 22.832C92.361 22.464 91.705 22.28 90.825 22.28H88.473V26.552ZM104.74 35.336C103.54 35.336 102.532 35.168 101.716 34.832C100.916 34.48 100.268 34.008 99.7716 33.416C99.2756 32.808 98.9156 32.12 98.6916 31.352C98.4836 30.584 98.3796 29.776 98.3796 28.928C98.3796 28.016 98.4916 27.144 98.7156 26.312C98.9556 25.48 99.3156 24.744 99.7956 24.104C100.292 23.448 100.924 22.936 101.692 22.568C102.476 22.184 103.412 21.992 104.5 21.992C105.588 21.992 106.516 22.184 107.284 22.568C108.068 22.936 108.692 23.456 109.156 24.128C109.62 24.8 109.916 25.576 110.044 26.456C110.188 27.336 110.172 28.288 109.996 29.312L100.804 29.456V27.344L107.02 27.224L106.516 28.448C106.612 27.712 106.596 27.096 106.468 26.6C106.356 26.088 106.14 25.704 105.82 25.448C105.5 25.176 105.06 25.04 104.5 25.04C103.908 25.04 103.436 25.192 103.084 25.496C102.732 25.8 102.484 26.232 102.34 26.792C102.196 27.336 102.124 27.984 102.124 28.736C102.124 30.032 102.34 30.976 102.772 31.568C103.204 32.16 103.868 32.456 104.764 32.456C105.148 32.456 105.468 32.408 105.724 32.312C105.98 32.216 106.188 32.08 106.348 31.904C106.508 31.712 106.62 31.488 106.684 31.232C106.748 30.96 106.772 30.656 106.756 30.32L110.308 30.512C110.356 31.04 110.3 31.584 110.14 32.144C109.996 32.704 109.716 33.224 109.3 33.704C108.884 34.184 108.3 34.576 107.548 34.88C106.812 35.184 105.876 35.336 104.74 35.336ZM111.653 38.552V26.84V22.328H115.061V26.24H115.229C115.405 25.296 115.669 24.512 116.021 23.888C116.373 23.248 116.821 22.776 117.365 22.472C117.925 22.152 118.597 21.992 119.381 21.992C120.373 21.992 121.213 22.248 121.901 22.76C122.605 23.256 123.133 24 123.485 24.992C123.853 25.968 124.037 27.176 124.037 28.616C124.037 30.168 123.829 31.44 123.413 32.432C123.013 33.424 122.461 34.16 121.757 34.64C121.053 35.104 120.253 35.336 119.357 35.336C118.637 35.336 117.997 35.184 117.437 34.88C116.893 34.576 116.437 34.112 116.069 33.488C115.717 32.848 115.469 32.048 115.325 31.088H115.109C115.189 31.552 115.261 32.04 115.325 32.552C115.389 33.048 115.437 33.544 115.469 34.04C115.517 34.52 115.541 34.984 115.541 35.432V38.552H111.653ZM117.893 32.144C118.405 32.144 118.821 31.984 119.141 31.664C119.477 31.344 119.717 30.928 119.861 30.416C120.021 29.888 120.101 29.336 120.101 28.76C120.101 28.12 120.013 27.544 119.837 27.032C119.677 26.504 119.429 26.088 119.093 25.784C118.773 25.464 118.373 25.304 117.893 25.304C117.589 25.304 117.293 25.376 117.005 25.52C116.717 25.648 116.461 25.856 116.237 26.144C116.013 26.416 115.829 26.768 115.685 27.2C115.557 27.632 115.493 28.152 115.493 28.76V28.904C115.493 29.384 115.541 29.8 115.637 30.152C115.733 30.504 115.861 30.808 116.021 31.064C116.181 31.32 116.365 31.528 116.573 31.688C116.781 31.848 116.997 31.968 117.221 32.048C117.445 32.112 117.669 32.144 117.893 32.144ZM131.338 35.336C130.122 35.336 129.042 35.096 128.098 34.616C127.154 34.12 126.418 33.384 125.89 32.408C125.362 31.416 125.098 30.176 125.098 28.688C125.098 27.136 125.37 25.872 125.914 24.896C126.474 23.904 127.226 23.176 128.17 22.712C129.13 22.232 130.21 21.992 131.41 21.992C132.658 21.992 133.746 22.24 134.674 22.736C135.618 23.216 136.346 23.952 136.858 24.944C137.386 25.92 137.65 27.16 137.65 28.664C137.65 30.216 137.37 31.488 136.81 32.48C136.266 33.456 135.514 34.176 134.554 34.64C133.61 35.104 132.538 35.336 131.338 35.336ZM131.434 32.48C131.93 32.48 132.346 32.344 132.682 32.072C133.018 31.784 133.274 31.368 133.45 30.824C133.626 30.28 133.714 29.632 133.714 28.88C133.714 28.048 133.618 27.352 133.426 26.792C133.234 26.216 132.954 25.776 132.586 25.472C132.234 25.168 131.802 25.016 131.29 25.016C130.81 25.016 130.402 25.16 130.066 25.448C129.73 25.72 129.474 26.128 129.298 26.672C129.122 27.216 129.034 27.872 129.034 28.64C129.034 29.856 129.242 30.8 129.658 31.472C130.09 32.144 130.682 32.48 131.434 32.48ZM139.052 35V28.112V22.328H142.412V27.368H142.604C142.7 26.024 142.884 24.968 143.156 24.2C143.444 23.416 143.796 22.864 144.212 22.544C144.644 22.208 145.124 22.04 145.652 22.04C145.94 22.04 146.236 22.08 146.54 22.16C146.86 22.24 147.172 22.368 147.476 22.544L147.284 26.864C146.932 26.656 146.588 26.504 146.252 26.408C145.916 26.296 145.596 26.24 145.292 26.24C144.78 26.24 144.348 26.384 143.996 26.672C143.644 26.96 143.372 27.384 143.18 27.944C143.004 28.504 142.916 29.184 142.916 29.984V35H139.052ZM153.866 35.288C152.378 35.288 151.266 34.912 150.53 34.16C149.81 33.392 149.45 32.208 149.45 30.608V25.352H148.058V22.904H148.13C149.122 22.776 149.826 22.448 150.242 21.92C150.658 21.376 150.914 20.56 151.01 19.472V19.424H153.29V22.328H156.194V25.448H153.29V30.248C153.29 30.856 153.434 31.288 153.722 31.544C154.026 31.8 154.394 31.928 154.826 31.928C155.05 31.928 155.282 31.896 155.522 31.832C155.762 31.768 155.986 31.68 156.194 31.568V34.952C155.698 35.096 155.258 35.184 154.874 35.216C154.49 35.264 154.154 35.288 153.866 35.288Z" fill="#1E1E1E"/>
<g clip-path="url(#clip0_1_2)">
<path d="M30.5 1.02078C29.891 1.07719 29.744 1.09203 29.708 1.10688C29.645 1.13063 29.507 2.29734 29.456 3.23844L29.435 3.62141L29.105 3.70156C28.925 3.74609 28.673 3.82328 28.55 3.87375C28.235 4.00141 27.539 4.33094 27.359 4.44078C27.275 4.49125 27.2 4.53281 27.194 4.53281C27.185 4.53281 26.741 4.17656 26.207 3.74313C25.673 3.30969 25.217 2.9475 25.199 2.93859C25.127 2.90891 24.512 3.42547 24.053 3.8975C23.612 4.34875 23.108 4.97219 23.144 5.01672C23.273 5.18594 23.765 5.78563 24.185 6.28438C24.467 6.61984 24.71 6.91078 24.722 6.93156C24.734 6.95531 24.695 7.04438 24.62 7.16313C24.419 7.47781 24.185 7.96766 24.08 8.28828C24.026 8.45156 23.951 8.68016 23.912 8.79891C23.873 8.91469 23.84 9.03047 23.84 9.05422C23.84 9.08688 23.783 9.10172 23.624 9.11656C22.454 9.22344 21.329 9.3511 21.299 9.38375C21.206 9.47281 21.146 10.6663 21.197 11.3105C21.233 11.7588 21.302 12.2456 21.335 12.2753C21.347 12.2902 22.232 12.3763 23.606 12.5039L23.837 12.5247L23.855 12.6464C23.867 12.7147 23.9 12.8305 23.93 12.9047C23.96 12.9789 24.032 13.1927 24.092 13.3827C24.209 13.7419 24.452 14.2525 24.653 14.5494C24.719 14.6473 24.767 14.7423 24.758 14.7661C24.749 14.7869 24.509 15.0808 24.221 15.4192C23.429 16.3573 23.177 16.675 23.201 16.7136C23.303 16.8917 23.786 17.4528 24.125 17.7913C24.572 18.2366 25.271 18.8125 25.304 18.765C25.316 18.7472 25.601 18.5097 25.94 18.2336C26.279 17.9575 26.69 17.6191 26.855 17.4795C27.02 17.337 27.176 17.2064 27.206 17.1856C27.248 17.153 27.305 17.1738 27.596 17.337C27.998 17.5627 28.493 17.7645 28.973 17.8922C29.162 17.9427 29.336 17.9961 29.354 18.008C29.378 18.0228 29.423 18.3316 29.48 18.9045C29.57 19.7744 29.651 20.4602 29.672 20.5225C29.696 20.5848 30.602 20.6323 31.379 20.6145C31.997 20.5997 32.6 20.5433 32.648 20.4988C32.654 20.4898 32.708 19.9644 32.765 19.3291C32.825 18.6938 32.879 18.1297 32.888 18.0763C32.906 17.9634 32.9 17.9664 33.419 17.815C33.854 17.6873 34.433 17.435 34.784 17.2183C34.925 17.1292 35.054 17.0639 35.072 17.0728C35.09 17.0788 35.273 17.2272 35.48 17.4023C36.176 17.9961 37.046 18.667 37.091 18.6522C37.172 18.6195 37.505 18.3672 37.691 18.198C38.078 17.8417 39.14 16.6513 39.14 16.5741C39.14 16.5652 38.798 16.1555 38.384 15.6627C37.967 15.1728 37.595 14.7334 37.559 14.6889L37.493 14.6088L37.67 14.2703C37.907 13.822 38.138 13.2491 38.237 12.872L38.315 12.5633L38.87 12.5128C39.176 12.4861 39.752 12.4327 40.151 12.397L40.877 12.3288L40.895 12.2516C40.934 12.0645 40.973 11.6014 40.988 11.1234C41.015 10.4198 40.937 9.39563 40.856 9.34516C40.835 9.33328 40.265 9.27391 39.584 9.21156C38.903 9.14922 38.336 9.09281 38.324 9.08688C38.312 9.08094 38.288 8.99781 38.27 8.90281C38.189 8.4961 37.925 7.82219 37.652 7.32047L37.457 6.96125L37.571 6.82469C37.634 6.7475 37.988 6.31703 38.363 5.86578C38.735 5.41453 39.05 5.03156 39.062 5.01078C39.086 4.97516 38.849 4.67531 38.453 4.23891C38.015 3.75797 37.01 2.9 36.941 2.95047C36.692 3.1375 35.795 3.85594 35.48 4.12016C35.255 4.30422 35.054 4.47344 35.027 4.49422C34.991 4.52391 34.865 4.47344 34.34 4.20922C33.881 3.98359 33.599 3.86484 33.365 3.79656C33.185 3.74313 33.005 3.70156 32.969 3.70156C32.894 3.70156 32.894 3.71047 32.822 2.94453C32.771 2.3775 32.63 1.13953 32.618 1.12766C32.594 1.10391 32.24 1.05938 31.862 1.03266C31.472 1.00297 30.746 0.997032 30.5 1.02078ZM31.865 7.23734C32.516 7.34422 33.146 7.68563 33.695 8.22594C34.232 8.75438 34.562 9.33625 34.7 10.0102C35.012 11.4975 34.403 12.973 33.14 13.7983C32.564 14.1753 32.006 14.3505 31.292 14.3802C30.626 14.4098 30.128 14.3089 29.555 14.0328C28.838 13.6855 28.298 13.163 27.917 12.4475C27.629 11.9042 27.515 11.4292 27.518 10.7523C27.521 9.91813 27.749 9.24719 28.25 8.60594C28.886 7.78953 29.75 7.28188 30.635 7.20766C30.968 7.18094 31.622 7.19578 31.865 7.23734Z" fill="#2A5DB0"/>
<path d="M30.5 7.76578C29.405 8.00328 28.511 8.83156 28.169 9.92406C28.094 10.1705 28.088 10.2239 28.088 10.7523C28.085 11.3669 28.1 11.4589 28.283 11.928C28.478 12.4297 28.988 13.0502 29.477 13.3767C29.747 13.5578 30.119 13.7241 30.428 13.8013C30.812 13.8963 31.544 13.8963 31.898 13.8013C32.318 13.6884 32.621 13.5459 32.96 13.2966C33.92 12.59 34.379 11.5658 34.25 10.4169C34.169 9.67469 33.878 9.08688 33.347 8.58516C32.945 8.20516 32.525 7.96172 32.003 7.80734C31.646 7.70344 30.89 7.67969 30.5 7.76578ZM31.646 8.52578C32.33 8.66828 32.966 9.14625 33.257 9.73406C33.308 9.83797 33.38 10.0339 33.413 10.1705C33.467 10.3872 33.476 10.4822 33.464 10.8681C33.452 11.26 33.44 11.3461 33.362 11.5688C33.134 12.2427 32.468 12.8423 31.724 13.0413C31.496 13.1036 30.854 13.1125 30.65 13.0561C30.209 12.9373 29.849 12.7295 29.528 12.4119C29.393 12.2813 29.24 12.0972 29.183 12.0052C28.517 10.8978 28.868 9.44609 29.96 8.80484C30.182 8.67719 30.518 8.54656 30.74 8.51094C30.965 8.47234 31.433 8.48125 31.646 8.52578Z" fill="#2A5DB0"/>
<path d="M19.148 13.92C18.923 14.487 18.662 15.1906 18.395 15.9388L18.101 16.7641H17.735C17.042 16.7641 15.986 16.9036 15.371 17.0788C15.161 17.1381 14.984 17.1827 14.978 17.1767C14.975 17.1708 14.87 17.0253 14.747 16.8531C14.327 16.2594 13.037 14.5078 13.022 14.5078C12.992 14.5078 12.479 14.7097 12.365 14.7691C12.299 14.8017 12.143 14.8759 12.02 14.9353C11.897 14.9917 11.66 15.1164 11.495 15.2144C11.33 15.3094 11.051 15.4727 10.874 15.5766C10.559 15.7606 10.124 16.0694 9.848 16.3039L9.71 16.4256L10.07 17.1945C10.271 17.6191 10.583 18.2841 10.766 18.673L11.099 19.3795L10.871 19.6081C10.283 20.2019 9.572 21.1252 9.332 21.612C9.284 21.707 9.236 21.7813 9.221 21.7813C9.209 21.7813 8.783 21.71 8.276 21.6209C7.289 21.4488 5.957 21.238 5.945 21.2528C5.921 21.2766 5.636 21.9891 5.525 22.3008C5.372 22.7342 5.12 23.9573 5.015 24.7945L4.997 24.943L6.521 25.5219L8.045 26.1008L8.051 26.3828C8.063 26.8905 8.12 27.5139 8.183 27.8345C8.216 28.0067 8.264 28.2531 8.288 28.3778C8.312 28.5055 8.366 28.7222 8.405 28.8617C8.447 29.0013 8.48 29.1348 8.48 29.1586C8.48 29.1794 8.201 29.3961 7.859 29.6366C7.514 29.877 6.92 30.3016 6.536 30.5806C5.912 31.0319 5.84 31.0942 5.855 31.1536C5.921 31.4148 6.503 32.5311 6.893 33.1486C7.115 33.493 7.562 34.1283 7.685 34.2708L7.775 34.3717L8.3 34.1313C8.816 33.8908 10.508 33.1248 10.688 33.0477L10.778 33.0061L11.183 33.3772C11.69 33.8463 11.942 34.0333 12.629 34.4489C13.043 34.6983 13.175 34.7933 13.169 34.8348C13.166 34.8645 13.103 35.2564 13.028 35.7047C12.896 36.4944 12.68 37.9253 12.68 37.9995C12.68 38.0203 12.725 38.053 12.779 38.0767C13.454 38.3439 14.057 38.528 14.924 38.7298C15.503 38.8664 16.343 39.0089 16.373 38.9763C16.427 38.9169 17.156 37.0198 17.438 36.2183L17.552 35.8828H18.008C18.794 35.8828 19.349 35.8056 20.144 35.58C20.51 35.4791 20.582 35.4672 20.615 35.4998C20.636 35.5236 21.074 36.1292 21.59 36.8477C22.106 37.5661 22.532 38.1598 22.538 38.1628C22.547 38.1747 22.811 38.053 23.621 37.6581C23.957 37.4948 24.35 37.2722 24.656 37.0733C25.091 36.7883 25.649 36.3816 25.799 36.2391C25.853 36.1916 25.844 36.1648 25.556 35.5236C25.391 35.1584 25.079 34.4845 24.866 34.0273L24.476 33.1991L24.827 32.825C25.307 32.3203 25.742 31.7325 26.042 31.1863C26.117 31.0438 26.192 30.922 26.204 30.9161C26.216 30.9102 26.489 30.9488 26.81 31.0022C28.487 31.2813 29.459 31.4327 29.492 31.4208C29.558 31.3941 30.026 30.0759 30.155 29.5594C30.179 29.4525 30.215 29.3367 30.23 29.3011C30.257 29.2388 30.449 28.167 30.482 27.8909L30.5 27.7514L30.356 27.6891C30.17 27.6059 28.916 27.1369 28.064 26.8281L27.38 26.5817V26.1186C27.38 25.5872 27.35 25.2844 27.257 24.7886C27.203 24.4947 27.056 23.8564 27.002 23.6753C26.99 23.6397 27.134 23.5239 27.566 23.2181C28.217 22.758 29.651 21.7011 29.675 21.6595C29.696 21.6269 29.492 21.1519 29.246 20.668C28.898 19.9763 28.448 19.2786 27.974 18.6878L27.743 18.3998L27.344 18.572C26.792 18.8125 25.904 19.2163 25.283 19.5131L24.764 19.7625L24.362 19.3855C23.936 18.9877 23.42 18.5898 23.075 18.388C22.895 18.2841 22.526 18.0436 22.451 17.9813C22.439 17.9694 22.484 17.6161 22.55 17.1916C22.886 15.0719 22.943 14.7097 22.934 14.7008C22.928 14.6978 22.715 14.6147 22.46 14.5167C21.92 14.3089 21.263 14.0922 21.167 14.0922C21.131 14.0922 21.026 14.0655 20.933 14.0358C20.693 13.9527 19.469 13.7092 19.295 13.7062C19.247 13.7062 19.217 13.7537 19.148 13.92ZM18.605 21.707C19.433 21.8525 20.297 22.2533 20.921 22.7847C21.659 23.4141 22.301 24.563 22.475 25.5634C22.541 25.9405 22.535 26.5936 22.463 27.0122C22.331 27.7692 22.001 28.5708 21.608 29.0844C20.915 29.9958 19.715 30.7113 18.548 30.9102C18.206 30.9666 17.546 30.9666 17.186 30.9102C16.502 30.8003 15.728 30.5242 15.248 30.2184C14.18 29.5356 13.388 28.363 13.142 27.0953C13.07 26.7183 13.07 26.0325 13.142 25.6258C13.412 24.1147 14.129 23.0667 15.425 22.283C15.767 22.0752 16.304 21.8614 16.715 21.7634C17.294 21.6269 18.032 21.6061 18.605 21.707Z" fill="#2A5DB0"/>
<path d="M17.525 22.3067C16.88 22.3809 16.514 22.4908 15.98 22.7639C14.93 23.3013 14.303 24.082 13.985 25.2517C13.835 25.798 13.811 25.9672 13.808 26.4125C13.808 26.8341 13.856 27.1606 13.973 27.5139C14.045 27.7336 14.3 28.2828 14.33 28.2828C14.339 28.2828 14.432 28.4075 14.531 28.5559C14.975 29.218 15.596 29.7108 16.358 30.0047C17.876 30.5925 19.469 30.2838 20.669 29.1734C21.209 28.6747 21.653 27.8791 21.803 27.1488C22.01 26.1305 21.839 25.1775 21.284 24.2572C20.687 23.2627 19.907 22.7016 18.71 22.4077C18.308 22.3097 17.834 22.2681 17.525 22.3067ZM18.56 23.417C19.496 23.6486 20.156 24.1919 20.603 25.0944C20.807 25.513 20.852 25.7297 20.852 26.3086C20.852 26.8994 20.807 27.1102 20.582 27.5673C20.417 27.9088 20.246 28.1492 19.997 28.3956C19.127 29.2417 18.116 29.4881 16.925 29.1438C16.151 28.9211 15.539 28.3927 15.14 27.603C14.759 26.8489 14.723 25.9019 15.041 25.1805C15.356 24.4798 15.908 23.9217 16.616 23.5922C17.267 23.2894 17.84 23.2389 18.56 23.417Z" fill="#2A5DB0"/>
</g>
<defs>
<clipPath id="clip0_1_2">
<rect width="36" height="38" fill="white" transform="translate(5 1)"/>
</clipPath>
</defs>
</svg>
